HIERARCHY
ROOT SpineBase
{
  OFFSET 0.000000 0.000000 0.000000
  CHANNELS 6 Xposition Yposition Zposition Zrotation Xrotation Yrotation
  JOINT SpineMid
  {
    OFFSET -0.000000 29.809633 0.000000
    CHANNELS 3 Zrotation Xrotation Yrotation
    JOINT SpineShoulder
    {
      OFFSET 0.139793 21.881071 -0.913266
      CHANNELS 3 Zrotation Xrotation Yrotation
      JOINT Neck
      {
        OFFSET 0.204748 7.309700 -0.641499
        CHANNELS 3 Zrotation Xrotation Yrotation
        JOINT Head
        {
          OFFSET 2.619712 11.251074 3.817726
          CHANNELS 3 Zrotation Xrotation Yrotation
          End Site
          {
            OFFSET 0 0 0
          }
        }
      }
      JOINT ShoulderLeft
      {
        OFFSET -4.409396 -3.467419 -11.107368
        CHANNELS 3 Zrotation Xrotation Yrotation
        JOINT ElbowLeft
        {
          OFFSET -1.075914 -26.531517 -5.338363
          CHANNELS 3 Zrotation Xrotation Yrotation
          JOINT WristLeft
          {
            OFFSET 3.899218 -19.657511 -1.666791
            CHANNELS 3 Zrotation Xrotation Yrotation
            JOINT HandLeft
            {
              OFFSET 0.657592 -6.293570 0.662270
              CHANNELS 3 Zrotation Xrotation Yrotation
              JOINT HandTipLeft
              {
                OFFSET 1.966602 -6.409141 -0.000780
                CHANNELS 3 Zrotation Xrotation Yrotation
                End Site
                {
                  OFFSET 0 0 0
                }
              }
              JOINT ThumbLeft
              {
                OFFSET 2.678246 1.449394 -1.545189
                CHANNELS 3 Zrotation Xrotation Yrotation
                End Site
                {
                  OFFSET 0 0 0
                }
              }
            }
          }
        }
      }
      JOINT ShoulderRight
      {
        OFFSET 8.940153 -6.672034 8.809935
        CHANNELS 3 Zrotation Xrotation Yrotation
        JOINT ElbowRight
        {
          OFFSET -7.639051 -20.099711 -18.536712
          CHANNELS 3 Zrotation Xrotation Yrotation
          JOINT WristRight
          {
            OFFSET -4.581419 -21.102097 -12.170314
            CHANNELS 3 Zrotation Xrotation Yrotation
            JOINT HandRight
            {
              OFFSET -1.839768 -7.297901 -5.267886
              CHANNELS 3 Zrotation Xrotation Yrotation
              JOINT HandTipRight
              {
                OFFSET 0.777839 -0.361109 0.275812
                CHANNELS 3 Zrotation Xrotation Yrotation
                End Site
                {
                  OFFSET 0 0 0
                }
              }
              JOINT ThumbRight
              {
                OFFSET -0.097489 2.030906 -1.305293
                CHANNELS 3 Zrotation Xrotation Yrotation
                End Site
                {
                  OFFSET 0 0 0
                }
              }
            }
          }
        }
      }
    }
  }
  JOINT HipLeft
  {
    OFFSET -3.057789 1.830445 -7.570215
    CHANNELS 3 Zrotation Xrotation Yrotation
    JOINT KneeLeft
    {
      OFFSET -4.934461 -30.747079 -1.440168
      CHANNELS 3 Zrotation Xrotation Yrotation
      JOINT AnkleLeft
      {
        OFFSET -9.181574 -34.598567 0.052210
        CHANNELS 3 Zrotation Xrotation Yrotation
        JOINT FootLeft
        {
          OFFSET 8.088844 -3.495763 -7.933118
          CHANNELS 3 Zrotation Xrotation Yrotation
          End Site
          {
            OFFSET 0 0 0
          }
        }
      }
    }
  }
  JOINT HipRight
  {
    OFFSET 4.269641 -0.607087 0.674208
    CHANNELS 3 Zrotation Xrotation Yrotation
    JOINT KneeRight
    {
      OFFSET -4.802304 -31.985426 7.232134
      CHANNELS 3 Zrotation Xrotation Yrotation
      JOINT AnkleRight
      {
        OFFSET -9.307475 -33.560085 6.083766
        CHANNELS 3 Zrotation Xrotation Yrotation
        JOINT FootRight
        {
          OFFSET 2.731996 -5.061897 -7.288414
          CHANNELS 3 Zrotation Xrotation Yrotation
          End Site
          {
            OFFSET 0 0 0
          }
        }
      }
    }
  }
}
MOTION
Frames: 9
Frame Time: 0.033333
-58.486838 72.142117 348.160240 0.000000 0.000000 -48.370133 -0.000000 0.000000 48.370133 -0.000000 0.000000 0.000000 -0.000000 0.000000 0.000000 0.000000 0.000000 0.000000 -0.000000 0.000000 0.000000 -0.000000 0.000000 0.000000 -0.000000 0.000000 0.000000 -0.000000 0.000000 0.000000 0.000000 0.000000 0.000000 0.000000 0.000000 0.000000 -0.000000 0.000000 0.000000 -0.000000 0.000000 0.000000 -0.000000 0.000000 0.000000 -0.000000 0.000000 0.000000 0.000000 0.000000 0.000000 0.000000 0.000000 0.000000 -0.000000 0.000000 48.370133 -0.000000 0.000000 0.000000 -0.000000 0.000000 0.000000 0.000000 0.000000 0.000000 -0.000000 0.000000 48.370133 -0.000000 0.000000 0.000000 -0.000000 0.000000 0.000000 0.000000 0.000000 0.000000
-61.238715 71.668268 347.251110 -3.048374 0.925344 -46.885944 0.234558 0.238015 46.793363 1.713854 -0.511010 0.029189 2.000051 0.017704 -0.330272 0.000000 0.000000 0.000000 1.911964 -0.454705 -0.071433 -1.539843 -0.488781 0.125344 -1.667102 -1.577665 -0.433489 0.877232 0.205511 -0.141102 0.000000 0.000000 0.000000 0.000000 0.000000 0.000000 1.002013 -0.400708 0.102660 -0.000000 0.000000 0.000000 3.209834 -16.769138 2.721870 -30.557323 29.296471 34.512628 0.000000 0.000000 0.000000 0.000000 0.000000 0.000000 6.617878 4.493929 46.575753 -4.754068 0.813133 0.125185 -0.000000 0.000000 0.000000 0.000000 0.000000 0.000000 7.838705 3.591707 48.110693 -5.950682 5.394579 -2.308904 5.819153 -4.591313 -6.206672 0.000000 0.000000 0.000000
-63.591670 71.276939 346.488151 -5.579291 1.660763 -45.237612 0.432467 0.426187 45.107111 3.020670 -0.882232 0.053518 3.832163 0.172343 -0.637771 0.000000 0.000000 0.000000 3.688746 -0.866886 -0.113768 -2.844228 -0.988893 0.215260 -3.204039 -2.761716 -0.809964 1.819616 0.150626 -0.351195 0.000000 0.000000 0.000000 0.000000 0.000000 0.000000 2.339562 -1.560045 0.168814 -0.381049 0.806233 0.047313 8.656846 -35.829994 7.856048 -57.362061 43.314838 66.706999 0.000000 0.000000 0.000000 0.000000 0.000000 0.000000 12.538152 7.984777 44.322326 -8.909018 1.508538 0.289746 -0.647592 -0.704683 -0.169521 0.000000 0.000000 0.000000 14.655234 6.331937 47.169967 -10.969546 10.243873 -4.054138 10.665051 -9.594126 -11.142747 0.000000 0.000000 0.000000
-65.545705 70.968131 345.871363 -7.614087 2.213649 -43.531498 0.588828 0.565009 43.393596 3.942366 -1.123101 0.064296 5.499133 0.461750 -0.928667 0.000000 0.000000 0.000000 5.326296 -1.237083 -0.131076 -3.915169 -1.501901 0.269945 -4.540782 -3.506431 -1.086725 2.768493 -0.220291 -0.640585 0.000000 0.000000 0.000000 0.000000 0.000000 0.000000 3.382855 -2.158611 0.265845 -0.514111 1.097220 0.061392 17.407043 -52.250652 16.527489 -83.310728 46.807975 97.932239 0.000000 0.000000 0.000000 0.000000 0.000000 0.000000 17.671491 10.504219 41.899029 -12.405069 2.077769 0.467124 -0.901407 -0.993331 -0.270948 0.000000 0.000000 0.000000 20.360896 8.233059 45.856228 -15.064894 14.363508 -5.331036 14.475819 -14.827894 -15.044374 0.000000 0.000000 0.000000
-67.100818 70.741843 345.400745 -9.176091 2.592865 -41.875983 0.699385 0.658430 41.743273 4.501059 -1.242531 0.056605 7.004063 0.883410 -1.207803 0.000000 0.000000 0.000000 6.821459 -1.566035 -0.127094 -4.753511 -2.030030 0.289518 -5.630464 -3.788969 -1.230766 3.684091 -0.942713 -1.007653 0.000000 0.000000 0.000000 0.000000 0.000000 0.000000 4.342955 -2.637812 0.367502 -0.608688 1.313399 0.068288 29.718144 -63.148726 28.976084 -100.675538 43.090327 119.680215 0.000000 0.000000 0.000000 0.000000 0.000000 0.000000 21.910968 12.174666 39.558225 -15.218020 2.520983 0.634929 -1.107903 -1.238966 -0.382580 0.000000 0.000000 0.000000 24.883071 9.416186 44.426542 -18.264006 17.642188 -6.232526 17.201005 -20.280155 -18.235433 0.000000 0.000000 0.000000
-68.257010 70.598075 345.076298 -10.286589 2.806506 -40.372248 0.760101 0.711981 40.244905 4.716270 -1.247760 0.028513 8.350295 1.434575 -1.478747 0.000000 0.000000 0.000000 8.172012 -1.854611 -0.105194 -5.359083 -2.576224 0.274058 -6.450625 -3.605136 -1.222681 4.545739 -2.032712 -1.440923 0.000000 0.000000 0.000000 0.000000 0.000000 0.000000 5.220652 -2.998874 0.471525 -0.262636 0.590535 0.016627 41.920726 -68.380191 41.788555 -109.257429 37.068221 131.541824 0.000000 0.000000 0.000000 0.000000 0.000000 0.000000 25.161520 13.165435 37.494052 -17.346384 2.843012 0.776250 -1.266636 -1.441304 -0.503846 0.000000 0.000000 0.000000 28.176442 10.053731 43.065296 -20.598922 20.024263 -6.838198 18.710589 -26.098758 -21.062018 0.000000 0.000000 0.000000
-69.137358 70.607008 344.864911 -11.041964 2.885732 -38.867639 0.748245 0.716955 38.738385 4.507006 -1.028635 -0.034332 9.670807 1.972338 -1.678222 0.000000 0.000000 0.000000 9.643111 -2.199246 -0.041050 -5.838594 -3.380662 0.197730 -7.558000 -2.361487 -0.980603 5.363837 -5.180128 -2.359783 0.000000 0.000000 0.000000 0.000000 0.000000 0.000000 6.217121 -3.356204 0.599164 -0.184920 0.481489 -0.006004 54.568603 -71.430983 55.339379 -112.734062 25.624303 136.440681 0.000000 0.000000 0.000000 0.000000 0.000000 0.000000 27.709563 13.689655 35.546476 -19.047123 3.074727 0.897536 -1.384899 -1.633444 -0.698789 0.000000 0.000000 0.000000 30.173057 10.564344 41.592031 -22.134496 20.838181 -7.182304 13.780853 -36.975160 -22.816690 0.000000 0.000000 0.000000
-69.383745 70.703109 344.920632 -11.170451 2.664658 -38.428993 0.681272 0.731447 38.278522 3.820648 -0.697704 -0.120575 10.754800 2.797095 -1.902353 0.000000 0.000000 0.000000 10.777761 -2.385094 0.031964 -5.946403 -4.061718 0.092861 -7.555457 -0.633069 -0.509417 7.017252 -7.613747 -2.895269 0.000000 0.000000 0.000000 0.000000 0.000000 0.000000 7.053545 -3.486958 0.719324 -0.074884 0.323625 -0.041943 58.562144 -72.072454 59.858742 -112.934889 14.968357 135.134944 0.000000 0.000000 0.000000 0.000000 0.000000 0.000000 28.331712 14.048845 34.862571 -19.670593 3.083329 0.942791 -1.438898 -1.756372 -0.876872 0.000000 0.000000 0.000000 30.143625 10.770803 41.039796 -22.355229 21.146458 -7.331317 11.263537 -43.706871 -25.943440 0.000000 0.000000 0.000000
-68.699289 70.806062 345.219467 -10.308711 2.201527 -38.150020 0.472749 0.623475 37.963384 2.609898 -0.264600 -0.217002 11.578645 3.789842 -2.193360 0.000000 0.000000 0.000000 11.507423 -2.531282 0.083095 -5.604214 -4.548452 -0.031091 -7.403472 0.522113 -0.092405 8.292030 -7.890822 -2.806848 0.000000 0.000000 0.000000 0.000000 0.000000 0.000000 7.641720 -3.488056 0.773925 -0.056840 0.287921 -0.041239 52.427274 -71.402176 54.759576 -111.028829 1.471463 132.690900 0.000000 0.000000 0.000000 0.000000 0.000000 0.000000 26.535331 13.400007 34.864832 -18.761812 2.893691 0.876107 -1.365821 -1.754609 -1.046767 0.000000 0.000000 0.000000 28.239036 10.259158 40.737521 -21.850033 21.596932 -7.464734 8.358268 -53.161661 -34.166180 0.000000 0.000000 0.000000
